# File created by Blade
# Date/Time:  Wed Apr 08 14:47:20 2015
# Frame Rate: 120.000 fps
#------------------------------------------------------
:FULLY-SPECIFIED
:DEGREES
1266
root 2.742940 32.413563 -13.454956 12.678449 -0.725237 -3.690303
Spine -9.156494 -2.470802 1.080455
Head 3.577870 -6.487354 1.159399
LeftShoulder -22.133851 49.508536 2.384824
LeftArm 50.771607 13.367662 -72.882769
LeftForeArm 6.613471 0.000000 111.885172
LeftHand 11.733317 0.000000 7.096189
LeftHandThumb1 -26.253704 0.000000 33.147579
RightShoulder -4.871576 -12.906459 -19.346743
RightArm 14.468963 -35.843313 79.384618
RightForeArm 1.095208 -0.000000 111.001532
RightHand 17.851649 -0.000000 -18.378306
RightHandThumb1 -24.326973 -0.000000 -32.862282
LeftUpLeg -27.991447 1.591191 1.104070
LeftLeg 19.355822 -0.000000 -0.000000
LeftFoot -17.280657 25.437481 -20.707147
LeftToeBase -4.784109 -0.000000 0.000000
RightUpLeg -8.707949 -2.972391 8.504733
RightLeg 12.520442 -0.000000 -0.000000
RightFoot -18.025450 -17.542606 14.070604
RightToeBase -2.095274 -0.000000 0.000000
1267
root 2.701115 32.409241 -13.532703 12.572198 -0.834221 -3.749450
Spine -8.987548 -2.403922 1.206515
Head 3.671932 -6.409282 1.120424
LeftShoulder -22.052577 49.544538 2.460955
LeftArm 50.790769 13.481505 -72.664147
LeftForeArm 6.382898 -0.000000 111.928027
LeftHand 11.906389 0.000000 5.930021
LeftHandThumb1 -26.253704 0.000000 33.147579
RightShoulder -4.905537 -12.981747 -19.332512
RightArm 14.525801 -35.744811 79.280021
RightForeArm 1.126402 -0.000000 111.048655
RightHand 17.911337 0.000000 -18.297521
RightHandThumb1 -24.326973 -0.000000 -32.862282
LeftUpLeg -28.109531 1.183081 1.389711
LeftLeg 19.552342 -0.000000 -0.000000
LeftFoot -17.259434 25.107721 -20.824631
LeftToeBase -4.811868 -0.000000 0.000000
RightUpLeg -8.680027 -2.895519 8.626139
RightLeg 12.428278 -0.000000 -0.000000
RightFoot -18.004852 -17.563784 13.959681
RightToeBase -1.994539 -0.000000 0.000000
1268
root 2.661489 32.404891 -13.606191 12.431433 -0.947135 -3.771155
Spine -8.774580 -2.364446 1.280981
Head 3.696097 -6.312405 1.144931
LeftShoulder -22.080807 49.592441 2.466105
LeftArm 50.883239 13.588570 -72.404320
LeftForeArm 6.482190 0.000000 111.914510
LeftHand 11.940405 -0.000000 5.703059
LeftHandThumb1 -26.253704 0.000000 33.147579
RightShoulder -4.935713 -13.005637 -19.298684
RightArm 14.563774 -35.690851 79.172761
RightForeArm 1.105817 -0.000000 111.082871
RightHand 17.929603 -0.000000 -18.277571
RightHandThumb1 -24.326973 -0.000000 -32.862282
LeftUpLeg -28.161746 0.828738 1.622096
LeftLeg 19.688410 -0.000000 -0.000000
LeftFoot -17.184427 24.710167 -20.958767
LeftToeBase -4.764076 -0.000000 0.000000
RightUpLeg -8.607823 -2.888819 8.707453
RightLeg 12.322741 -0.000000 -0.000000
RightFoot -17.968171 -17.521492 13.840317
RightToeBase -1.919330 -0.000000 0.000000
1269
root 2.622863 32.400272 -13.679528 12.320699 -1.077355 -3.807342
Spine -8.603007 -2.312387 1.378066
Head 3.769354 -6.243577 1.124932
LeftShoulder -22.074086 49.632603 2.499699
LeftArm 50.939512 13.678600 -72.177046
LeftForeArm 6.526990 -0.000000 111.900303
LeftHand 11.971428 0.000000 5.616041
LeftHandThumb1 -26.253704 0.000000 33.147579
RightShoulder -4.952602 -13.072986 -19.263487
RightArm 14.642137 -35.600614 79.068844
RightForeArm 1.115923 -0.000000 111.109528
RightHand 17.866793 -0.000000 -18.283821
RightHandThumb1 -24.326973 -0.000000 -32.862282
LeftUpLeg -28.243077 0.524272 1.847016
LeftLeg 19.813095 -0.000000 -0.000000
LeftFoot -17.077240 24.319808 -21.020200
LeftToeBase -4.591114 -0.000000 0.000000
RightUpLeg -8.558475 -2.771865 8.786251
RightLeg 12.228668 -0.000000 -0.000000
RightFoot -17.962449 -17.495191 13.782526
RightToeBase -1.783217 -0.000000 0.000000
1270
root 2.584101 32.394700 -13.751270 12.212700 -1.183939 -3.845900
Spine -8.437527 -2.258591 1.470280
Head 3.840037 -6.211241 1.124653
LeftShoulder -22.034201 49.682557 2.561319
LeftArm 51.010739 13.769251 -71.908088
LeftForeArm 6.615906 -0.000000 111.892237
LeftHand 11.952850 -0.000000 5.713071
LeftHandThumb1 -26.253704 0.000000 33.147579
RightShoulder -4.971720 -13.038580 -19.231498
RightArm 14.583332 -35.535533 79.058007
RightForeArm 1.162154 0.000000 111.127057
RightHand 17.906786 0.000000 -18.428952
RightHandThumb1 -24.326973 -0.000000 -32.862282
LeftUpLeg -28.324767 0.250164 2.060944
LeftLeg 19.936370 -0.000000 -0.000000
LeftFoot -16.944319 23.955035 -20.989653
LeftToeBase -4.464762 -0.000000 0.000000
RightUpLeg -8.513846 -2.739505 8.882686
RightLeg 12.120683 -0.000000 -0.000000
RightFoot -17.919923 -17.478524 13.645182
RightToeBase -1.772287 -0.000000 0.000000
1271
root 2.546951 32.390010 -13.819765 12.116024 -1.329818 -3.873072
Spine -8.293558 -2.181603 1.544930
Head 3.927380 -6.150009 1.123534
LeftShoulder -22.044120 49.745648 2.561572
LeftArm 51.094021 13.798022 -71.683685
LeftForeArm 6.711359 0.000000 111.878426
LeftHand 12.006131 0.000000 5.447040
LeftHandThumb1 -26.253704 0.000000 33.147579
RightShoulder -4.997355 -13.075673 -19.182099
RightArm 14.640922 -35.458419 78.969638
RightForeArm 1.168928 -0.000000 111.114306
RightHand 17.892670 -0.000000 -18.419833
RightHandThumb1 -24.326973 -0.000000 -32.862282
LeftUpLeg -28.390097 0.015009 2.257660
LeftLeg 20.038209 -0.000000 -0.000000
LeftFoot -16.846882 23.573451 -21.065420
LeftToeBase -4.508781 -0.000000 0.000000
RightUpLeg -8.455164 -2.592228 8.948067
RightLeg 11.993007 -0.000000 -0.000000
RightFoot -17.908009 -17.484380 13.580849
RightToeBase -1.722795 -0.000000 0.000000
